<?xml version="1.0" standalone="no"?>
<!DOCTYPE svg PUBLIC "-//W3C//DTD SVG 20010904//EN"
 "http://www.w3.org/TR/2001/REC-SVG-20010904/DTD/svg10.dtd">
<svg version="1.0" xmlns="http://www.w3.org/2000/svg"
 width="512.000000pt" height="512.000000pt" viewBox="0 0 512.000000 512.000000"
 preserveAspectRatio="xMidYMid meet">

<g transform="translate(0.000000,512.000000) scale(0.100000,-0.100000)"
fill="#000000" stroke="none">
<path d="M2535 4753 c-53 -13 -89 -87 -65 -134 53 -103 207 -57 186 55 -10 54
-67 91 -121 79z"/>
<path d="M2504 4382 c-42 -33 -44 -51 -44 -317 0 -209 3 -261 15 -285 18 -35
43 -50 85 -50 42 0 67 15 85 50 12 24 15 76 15 285 0 169 -4 264 -11 278 -18
35 -51 57 -89 57 -19 0 -45 -8 -56 -18z"/>
<path d="M1564 4221 c-39 -17 -66 -62 -61 -101 5 -37 168 -327 206 -366 35
-36 93 -33 133 6 47 48 38 85 -66 265 -48 83 -97 160 -109 172 -25 26 -72 37
-103 24z"/>
<path d="M3471 4208 c-46 -32 -221 -336 -221 -385 0 -79 106 -124 161 -69 39
39 201 328 206 367 4 30 0 42 -23 68 -39 42 -80 49 -123 19z"/>
<path d="M534 3530 c-31 -12 -54 -49 -54 -88 0 -43 14 -69 48 -86 15 -7 177
-53 360 -102 228 -61 332 -93 332 -102 0 -20 -411 -1556 -419 -1564 -3 -4
-156 33 -339 82 -184 50 -349 90 -368 90 -88 0 -124 -119 -53 -172 27 -20 786
-228 832 -228 16 0 42 8 57 17 31 18 29 18 346 -69 30 -8 31 -11 36 -71 13
-155 135 -269 291 -271 l67 -1 21 -42 c46 -94 152 -158 261 -157 l67 0 16 -37
c42 -92 155 -162 263 -164 l63 -1 29 -51 c55 -96 144 -147 255 -146 77 0 151
26 195 68 l26 25 52 -20 c195 -74 396 57 410 267 l5 73 51 29 c91 51 146 150
146 260 l0 60 320 127 c283 112 324 125 346 115 14 -6 37 -11 52 -11 46 0 805
208 831 228 71 53 35 172 -52 172 -19 0 -184 -40 -368 -90 -184 -49 -337 -86
-340 -82 -8 8 -419 1545 -419 1564 0 9 95 39 298 92 369 98 402 109 424 138
24 31 23 89 -2 121 -39 49 -57 47 -491 -69 -351 -94 -407 -112 -430 -135 l-25
-27 -124 69 c-207 115 -298 123 -523 48 -185 -62 -273 -109 -358 -190 -39 -38
-73 -69 -75 -69 -2 0 -63 37 -136 82 -161 99 -228 127 -318 135 -88 7 -109 2
-434 -113 -148 -52 -270 -93 -273 -91 -2 3 1 25 8 51 13 53 0 98 -35 121 -24
15 -802 225 -832 224 -10 0 -29 -4 -40 -9z m2849 -326 c66 -34 330 -183 339
-192 8 -8 391 -1433 386 -1437 -6 -6 -360 -145 -369 -145 -5 0 -9 11 -9 24 0
17 7 26 26 30 15 4 52 33 83 64 44 44 61 70 75 116 34 109 7 222 -73 301 -37
37 -248 166 -428 261 -71 37 -86 42 -114 34 -44 -13 -67 -37 -75 -75 -12 -65
8 -83 246 -221 122 -70 230 -139 242 -153 27 -35 19 -97 -17 -128 -50 -43 -78
-34 -315 102 -120 70 -234 129 -253 132 -45 7 -95 -35 -103 -88 -9 -55 24 -84
248 -213 228 -131 230 -133 246 -163 34 -64 -16 -143 -91 -143 -12 0 -124 58
-248 130 -230 132 -263 145 -310 120 -51 -28 -61 -117 -16 -157 12 -11 114
-73 227 -138 113 -64 213 -124 222 -133 23 -19 33 -77 20 -107 -6 -13 -22 -31
-36 -40 -48 -32 -77 -23 -243 73 -167 96 -218 115 -290 111 -43 -3 -44 -2 -73
48 -54 95 -140 145 -254 149 -66 3 -70 4 -82 32 -19 47 -83 111 -138 139 -36
19 -72 28 -124 31 -72 5 -73 5 -89 40 -24 51 -86 110 -142 135 -34 16 -66 22
-121 22 -131 0 -204 -49 -285 -189 -28 -47 -57 -86 -65 -86 -8 0 -94 22 -190
49 -154 42 -175 50 -172 67 6 29 343 1289 347 1292 7 7 672 242 703 248 67 13
116 -4 272 -97 l151 -90 -23 -37 c-12 -20 -64 -104 -115 -185 -100 -163 -119
-214 -110 -309 10 -110 76 -206 179 -259 66 -34 185 -38 263 -9 55 21 82 45
339 299 153 152 284 290 291 306 28 64 -21 135 -92 135 -34 0 -54 -17 -302
-264 -146 -144 -277 -270 -291 -280 -30 -20 -92 -21 -129 -1 -37 19 -65 77
-58 121 6 33 244 430 314 524 70 93 137 133 328 197 152 51 208 52 298 7z
m-1591 -1663 c52 -46 46 -82 -36 -224 -73 -126 -98 -151 -154 -151 -51 0 -96
52 -89 103 6 49 135 269 167 287 40 21 77 17 112 -15z m355 -206 c45 -52 28
-105 -99 -307 -37 -59 -79 -76 -131 -54 -79 32 -77 87 8 237 80 140 103 163
159 156 27 -4 49 -15 63 -32z m323 -182 c31 -18 50 -51 50 -86 0 -26 -112
-231 -148 -269 -48 -51 -115 -45 -152 14 -28 44 -22 69 47 191 90 160 133 192
203 150z m362 -212 c52 -46 46 -82 -37 -225 -74 -126 -98 -150 -153 -150 -51
0 -96 52 -89 104 7 51 132 267 165 285 42 22 78 18 114 -14z m273 -163 c54
-64 10 -158 -75 -158 -21 0 -41 3 -43 8 -6 8 75 181 85 182 3 0 18 -14 33 -32z"/>
<path d="M500 2053 c-78 -30 -90 -142 -19 -178 103 -54 199 75 116 154 -24 22
-72 34 -97 24z"/>
<path d="M4560 2053 c-78 -30 -90 -142 -19 -178 103 -54 199 75 116 154 -24
22 -72 34 -97 24z"/>
</g>
</svg>
